<svg width="181" height="131" viewBox="0 0 181 131" fill="none" xmlns="http://www.w3.org/2000/svg">
<path d="M21.8359 24.9152C23.3975 37.8338 27.2827 50.4944 30.4686 63.0829C31.6515 67.7568 33.6369 72.8918 34.0256 77.7504C34.2769 80.8916 32.6833 87.0602 35.5044 88.9409" stroke="#666666" stroke-width="3" stroke-linecap="round"/>
<path d="M2.41211 30.6703C3.20647 33.8478 36.2416 23.149 38.7813 22.4373C46.7708 20.1985 54.7354 17.1847 62.9208 15.723C63.6905 15.5856 65.7714 15.616 64.9991 14.8438" stroke="#666666" stroke-width="3" stroke-linecap="round"/>
<path d="M56.3671 81.0276C56.3671 74.1791 58.1501 50.8132 47.7344 50.8132" stroke="#666666" stroke-width="3" stroke-linecap="round"/>
<path d="M56.3652 68.0786C56.3652 57.1681 68.7376 52.9357 77.2276 50.8132" stroke="#666666" stroke-width="3" stroke-linecap="round"/>
<path d="M84.4219 54.4102C87.8361 59.1048 91.8713 63.3286 95.6124 67.7589C96.9745 69.3719 98.9532 72.8264 100.968 73.8338" stroke="#666666" stroke-width="3" stroke-linecap="round"/>
<path d="M106.724 53.6908C106.07 68.082 101.075 82.0087 97.1325 95.7352C95.1173 102.751 93.9073 110.127 91.6172 116.997" stroke="#666666" stroke-width="3" stroke-linecap="round"/>
<path d="M152.045 41.4612V67.3592" stroke="#666666" stroke-width="3" stroke-linecap="round"/>
<path d="M149.886 25.6346C149.886 20.7484 148.447 20.8217 148.447 25.6346" stroke="#666666" stroke-width="3" stroke-linecap="round"/>
<path d="M163.556 1.89471C163.556 12.3792 163.556 22.8636 163.556 33.3481C163.556 38.5836 163.556 43.8192 163.556 49.0547C163.556 52.4258 162.91 56.673 164.435 59.8456C166.398 63.9284 179.382 64.1552 179.382 58.7265" stroke="#666666" stroke-width="3" stroke-linecap="round"/>
<path d="M151.326 12.6856C160.701 12.6856 170.067 12.9467 179.382 11.9662" stroke="#666666" stroke-width="3" stroke-linecap="round"/>
<path d="M123.143 101.605C125.257 112.175 135.706 118.698 144.285 123.502" stroke="#666666" stroke-width="3" stroke-linecap="round"/>
<path d="M136.623 128.78C140.147 128.78 143.672 128.78 147.196 128.78C149.114 128.78 151.18 128.993 153.093 128.78C153.588 128.725 155.568 127.514 154.661 127.211" stroke="#666666" stroke-width="3" stroke-linecap="round"/>
<path d="M147.342 111.526C147.709 114.646 149.509 117.757 150.798 120.589C151.815 122.821 152.538 125.535 154.662 126.95" stroke="#666666" stroke-width="3" stroke-linecap="round"/>
</svg>
